<svg width="14" height="20" fill="none" xmlns="http://www.w3.org/2000/svg"><path d="M2.807 12.33c.684 0 1.404.294 2.196.918.971.77 1.62 1.137 1.979 1.137.54 0 .792-.293.792-.844 0-.293-.144-.55-.468-.77-.18-.11-1.08-.477-2.771-1.065C1.799 10.716.432 8.917.432 6.24c0-2.019.72-3.597 2.16-4.734C3.886.514 5.433 0 7.305 0c1.62 0 3.023.404 4.21 1.174 1.188.771 1.8 1.798 1.8 3.046 0 .734-.216 1.358-.684 1.872-.467.514-1.043.734-1.763.734-.756 0-1.584-.367-2.52-1.101-.575-.44-1.007-.697-1.295-.697-.504 0-.756.256-.756.733 0 .478.612.918 1.872 1.285 1.727.55 3.023 1.21 3.959 2.018 1.26 1.064 1.871 2.532 1.871 4.44 0 2.092-.684 3.707-2.087 4.881C10.617 19.486 8.925 20 6.838 20s-3.815-.55-5.182-1.688C.576 17.394 0 16.367 0 15.156c0-.807.252-1.468.792-2.018.576-.514 1.223-.808 2.015-.808z" fill="#fff"/></svg>